<svg width="44" height="44" viewBox="0 0 44 44" fill="none" xmlns="http://www.w3.org/2000/svg">
<rect width="44" height="44" fill="#23262F"/>
<path d="M23.7517 14.693C23.7517 13.8581 23.1416 13.1486 22.3161 13.0236C22.1066 12.9918 21.8935 12.9918 21.6839 13.0236C20.8584 13.1486 20.2482 13.8581 20.2482 14.6931V15.8737C19.7766 16.0083 19.3273 16.1959 18.9073 16.4297L18.072 15.5945C17.4817 15.0041 16.5485 14.9338 15.8764 15.4291C15.7058 15.5548 15.5551 15.7055 15.4294 15.8761C14.9341 16.5483 15.0043 17.4815 15.5947 18.0718L16.4299 18.907C16.1962 19.3271 16.0086 19.7764 15.874 20.248H14.6933C13.8584 20.248 13.1488 20.8582 13.0238 21.6837C12.9921 21.8932 12.9921 22.1063 13.0238 22.3158C13.1488 23.1413 13.8584 23.7515 14.6933 23.7515H15.874C16.0086 24.2231 16.1962 24.6724 16.4299 25.0925L15.5947 25.9277C15.0043 26.5181 14.9341 27.4513 15.4294 28.1234C15.5551 28.294 15.7058 28.4447 15.8764 28.5704C16.5485 29.0657 17.4817 28.9954 18.0721 28.4051L18.9073 27.5698C19.3273 27.8036 19.7766 27.9912 20.2482 28.1258V29.3065C20.2482 30.1414 20.8584 30.8509 21.6839 30.976C21.8934 31.0077 22.1066 31.0077 22.3161 30.976C23.1416 30.8509 23.7517 30.1414 23.7517 29.3065V28.1258C24.2234 27.9912 24.6727 27.8036 25.0927 27.5699L25.9279 28.4051C26.5183 28.9954 27.4515 29.0657 28.1236 28.5704C28.2942 28.4447 28.4449 28.294 28.5706 28.1234C29.0659 27.4513 28.9957 26.5181 28.4053 25.9277L27.5701 25.0925C27.8038 24.6724 27.9914 24.2231 28.1261 23.7515H29.3067C30.1416 23.7515 30.8512 23.1413 30.9762 22.3158C31.0079 22.1063 31.0079 21.8932 30.9762 21.6837C30.8512 20.8582 30.1416 20.248 29.3067 20.248H28.126C27.9914 19.7764 27.8038 19.3271 27.5701 18.907L28.4053 18.0718C28.9957 17.4814 29.0659 16.5482 28.5706 15.8761C28.4449 15.7055 28.2942 15.5548 28.1236 15.4291C27.4515 14.9338 26.5183 15.0041 25.9279 15.5945L25.0927 16.4297C24.6727 16.1959 24.2234 16.0083 23.7517 15.8737V14.693Z" stroke="#FCFCFD" stroke-width="1.5" stroke-linecap="round" stroke-linejoin="round"/>
<path d="M19.5 21.9998C19.5 20.619 20.6193 19.4998 22 19.4998C23.3807 19.4998 24.5 20.619 24.5 21.9998C24.5 23.3805 23.3807 24.4998 22 24.4998C20.6193 24.4998 19.5 23.3805 19.5 21.9998Z" stroke="#FCFCFD" stroke-width="1.5"/>
</svg>
