<svg width="44" height="44" viewBox="0 0 44 44" fill="none" xmlns="http://www.w3.org/2000/svg">
<rect width="44" height="44" fill="#23262F"/>
<path d="M13.4718 23.5542L14.1922 23.3457L13.4718 23.5542ZM13.4718 16.9063L12.7513 16.6978H12.7513L13.4718 16.9063ZM30.5282 16.9063L31.2487 16.6978V16.6978L30.5282 16.9063ZM30.5282 23.5542L29.8078 23.3457V23.3457L30.5282 23.5542ZM26.8148 27.0073L26.6747 26.2705L26.8148 27.0073ZM17.1852 27.0073L17.3253 26.2705L17.1852 27.0073ZM17.1852 13.4532L17.0451 12.7164L17.1852 13.4532ZM26.8148 13.4532L26.9549 12.7164L26.8148 13.4532ZM13.5201 23.721L12.7996 23.9295H12.7996L13.5201 23.721ZM30.48 23.721L31.2004 23.9295L31.2004 23.9295L30.48 23.721ZM30.48 16.7395L29.7595 16.948L29.7595 16.948L30.48 16.7395ZM13.5201 16.7395L14.2405 16.948L13.5201 16.7395ZM22.75 27.9228C22.75 27.5085 22.4142 27.1728 22 27.1728C21.5858 27.1728 21.25 27.5085 21.25 27.9228H22.75ZM21.25 30.9998C21.25 31.414 21.5858 31.7498 22 31.7498C22.4142 31.7498 22.75 31.414 22.75 30.9998H21.25ZM19.3639 30.2498C18.9496 30.2498 18.6139 30.5855 18.6139 30.9998C18.6139 31.414 18.9496 31.7498 19.3639 31.7498V30.2498ZM24.6361 31.7498C25.0504 31.7498 25.3861 31.414 25.3861 30.9998C25.3861 30.5855 25.0504 30.2498 24.6361 30.2498V31.7498ZM29.7595 16.948L29.8078 17.1148L31.2487 16.6978L31.2004 16.531L29.7595 16.948ZM29.8078 23.3457L29.7595 23.5125L31.2004 23.9295L31.2487 23.7627L29.8078 23.3457ZM14.2405 23.5125L14.1922 23.3457L12.7513 23.7627L12.7996 23.9295L14.2405 23.5125ZM14.1922 17.1148L14.2405 16.948L12.7996 16.531L12.7513 16.6978L14.1922 17.1148ZM14.1922 23.3457C13.6026 21.3082 13.6026 19.1523 14.1922 17.1148L12.7513 16.6978C12.0829 19.0077 12.0829 21.4528 12.7513 23.7627L14.1922 23.3457ZM29.8078 17.1148C30.3974 19.1523 30.3974 21.3082 29.8078 23.3457L31.2487 23.7627C31.9171 21.4528 31.9171 19.0077 31.2487 16.6978L29.8078 17.1148ZM26.6747 26.2705C23.5875 26.8575 20.4125 26.8575 17.3253 26.2705L17.0451 27.7441C20.3175 28.3663 23.6825 28.3663 26.9549 27.7441L26.6747 26.2705ZM17.3253 14.19C20.4125 13.603 23.5875 13.603 26.6747 14.19L26.9549 12.7164C23.6825 12.0942 20.3175 12.0942 17.0451 12.7164L17.3253 14.19ZM17.3253 26.2705C15.8327 25.9867 14.6458 24.9131 14.2405 23.5125L12.7996 23.9295C13.3669 25.8897 15.015 27.3581 17.0451 27.7441L17.3253 26.2705ZM26.9549 27.7441C28.985 27.3581 30.6331 25.8897 31.2004 23.9295L29.7595 23.5125C29.3542 24.9131 28.1673 25.9867 26.6747 26.2705L26.9549 27.7441ZM26.6747 14.19C28.1673 14.4738 29.3542 15.5474 29.7595 16.948L31.2004 16.531C30.6331 14.5708 28.985 13.1024 26.9549 12.7164L26.6747 14.19ZM17.0451 12.7164C15.015 13.1024 13.3669 14.5708 12.7996 16.531L14.2405 16.948C14.6458 15.5474 15.8327 14.4738 17.3253 14.19L17.0451 12.7164ZM21.25 27.9228V30.9998H22.75V27.9228H21.25ZM19.3639 31.7498H24.6361V30.2498H19.3639V31.7498Z" fill="#FCFCFD"/>
<path d="M18 21.2498L20.0588 19.6284C20.4346 19.3325 20.6225 19.1845 20.8303 19.2109C21.0381 19.2373 21.1831 19.4275 21.473 19.808L22.527 21.1915C22.8169 21.572 22.9619 21.7622 23.1697 21.7886C23.3775 21.815 23.5654 21.667 23.9412 21.3711L26 19.7498" stroke="#FCFCFD" stroke-width="1.5" stroke-linecap="round"/>
</svg>
