<svg width="129" height="23" viewBox="0 0 129 23" fill="none" xmlns="http://www.w3.org/2000/svg">
<path d="M0 22.54H22V0.54H0V22.54Z" fill="black"/>
<path d="M48.3524 6.436L44.8424 19H41.8724L39.5144 10.054L37.0484 19L34.0964 19.018L30.7124 6.436H33.4124L35.6264 16.192L38.1824 6.436H40.9904L43.4024 16.138L45.6344 6.436H48.3524ZM54.4259 19.162C53.4659 19.162 52.6019 18.952 51.8339 18.532C51.0659 18.1 50.4599 17.494 50.0159 16.714C49.5839 15.934 49.3679 15.034 49.3679 14.014C49.3679 12.994 49.5899 12.094 50.0339 11.314C50.4899 10.534 51.1079 9.934 51.8879 9.514C52.6679 9.082 53.5379 8.866 54.4979 8.866C55.4579 8.866 56.3279 9.082 57.1079 9.514C57.8879 9.934 58.4999 10.534 58.9439 11.314C59.3999 12.094 59.6279 12.994 59.6279 14.014C59.6279 15.034 59.3939 15.934 58.9259 16.714C58.4699 17.494 57.8459 18.1 57.0539 18.532C56.2739 18.952 55.3979 19.162 54.4259 19.162ZM54.4259 16.966C54.8819 16.966 55.3079 16.858 55.7039 16.642C56.1119 16.414 56.4359 16.078 56.6759 15.634C56.9159 15.19 57.0359 14.65 57.0359 14.014C57.0359 13.066 56.7839 12.34 56.2799 11.836C55.7879 11.32 55.1819 11.062 54.4619 11.062C53.7419 11.062 53.1359 11.32 52.6439 11.836C52.1639 12.34 51.9239 13.066 51.9239 14.014C51.9239 14.962 52.1579 15.694 52.6259 16.21C53.1059 16.714 53.7059 16.966 54.4259 16.966ZM65.9044 19.162C64.9444 19.162 64.0804 18.952 63.3124 18.532C62.5444 18.1 61.9384 17.494 61.4944 16.714C61.0624 15.934 60.8464 15.034 60.8464 14.014C60.8464 12.994 61.0684 12.094 61.5124 11.314C61.9684 10.534 62.5864 9.934 63.3664 9.514C64.1464 9.082 65.0164 8.866 65.9764 8.866C66.9364 8.866 67.8064 9.082 68.5864 9.514C69.3664 9.934 69.9784 10.534 70.4224 11.314C70.8784 12.094 71.1064 12.994 71.1064 14.014C71.1064 15.034 70.8724 15.934 70.4044 16.714C69.9484 17.494 69.3244 18.1 68.5324 18.532C67.7524 18.952 66.8764 19.162 65.9044 19.162ZM65.9044 16.966C66.3604 16.966 66.7864 16.858 67.1824 16.642C67.5904 16.414 67.9144 16.078 68.1544 15.634C68.3944 15.19 68.5144 14.65 68.5144 14.014C68.5144 13.066 68.2624 12.34 67.7584 11.836C67.2664 11.32 66.6604 11.062 65.9404 11.062C65.2204 11.062 64.6144 11.32 64.1224 11.836C63.6424 12.34 63.4024 13.066 63.4024 14.014C63.4024 14.962 63.6364 15.694 64.1044 16.21C64.5844 16.714 65.1844 16.966 65.9044 16.966ZM78.4809 8.884C79.6689 8.884 80.6289 9.262 81.3609 10.018C82.0929 10.762 82.4589 11.806 82.4589 13.15V19H79.9389V13.492C79.9389 12.7 79.7409 12.094 79.3449 11.674C78.9489 11.242 78.4089 11.026 77.7249 11.026C77.0289 11.026 76.4769 11.242 76.0689 11.674C75.6729 12.094 75.4749 12.7 75.4749 13.492V19H72.9549V9.028H75.4749V10.27C75.8109 9.838 76.2369 9.502 76.7529 9.262C77.2809 9.01 77.8569 8.884 78.4809 8.884ZM84.2073 13.978C84.2073 12.97 84.4053 12.076 84.8013 11.296C85.2093 10.516 85.7613 9.916 86.4573 9.496C87.1533 9.076 87.9273 8.866 88.7793 8.866C89.4273 8.866 90.0453 9.01 90.6333 9.298C91.2213 9.574 91.6893 9.946 92.0373 10.414V5.68H94.5933V19H92.0373V17.524C91.7253 18.016 91.2873 18.412 90.7233 18.712C90.1593 19.012 89.5053 19.162 88.7613 19.162C87.9213 19.162 87.1533 18.946 86.4573 18.514C85.7613 18.082 85.2093 17.476 84.8013 16.696C84.4053 15.904 84.2073 14.998 84.2073 13.978ZM92.0553 14.014C92.0553 13.402 91.9353 12.88 91.6953 12.448C91.4553 12.004 91.1313 11.668 90.7233 11.44C90.3153 11.2 89.8773 11.08 89.4093 11.08C88.9413 11.08 88.5093 11.194 88.1133 11.422C87.7173 11.65 87.3933 11.986 87.1413 12.43C86.9013 12.862 86.7813 13.378 86.7813 13.978C86.7813 14.578 86.9013 15.106 87.1413 15.562C87.3933 16.006 87.7173 16.348 88.1133 16.588C88.5213 16.828 88.9533 16.948 89.4093 16.948C89.8773 16.948 90.3153 16.834 90.7233 16.606C91.1313 16.366 91.4553 16.03 91.6953 15.598C91.9353 15.154 92.0553 14.626 92.0553 14.014ZM106.325 13.798C106.325 14.158 106.301 14.482 106.253 14.77H98.9625C99.0225 15.49 99.2745 16.054 99.7185 16.462C100.163 16.87 100.709 17.074 101.357 17.074C102.293 17.074 102.959 16.672 103.355 15.868H106.073C105.785 16.828 105.233 17.62 104.417 18.244C103.601 18.856 102.599 19.162 101.411 19.162C100.451 19.162 99.5865 18.952 98.8185 18.532C98.0625 18.1 97.4685 17.494 97.0365 16.714C96.6165 15.934 96.4065 15.034 96.4065 14.014C96.4065 12.982 96.6165 12.076 97.0365 11.296C97.4565 10.516 98.0445 9.916 98.8005 9.496C99.5565 9.076 100.427 8.866 101.411 8.866C102.359 8.866 103.205 9.07 103.949 9.478C104.705 9.886 105.287 10.468 105.695 11.224C106.115 11.968 106.325 12.826 106.325 13.798ZM103.715 13.078C103.703 12.43 103.469 11.914 103.013 11.53C102.557 11.134 101.999 10.936 101.339 10.936C100.715 10.936 100.187 11.128 99.7545 11.512C99.3345 11.884 99.0765 12.406 98.9805 13.078H103.715ZM110.684 10.576C111.008 10.048 111.428 9.634 111.944 9.334C112.472 9.034 113.072 8.884 113.744 8.884V11.53H113.078C112.286 11.53 111.686 11.716 111.278 12.088C110.882 12.46 110.684 13.108 110.684 14.032V19H108.164V9.028H110.684V10.576ZM119.257 19.162C118.441 19.162 117.709 19.018 117.061 18.73C116.413 18.43 115.897 18.028 115.513 17.524C115.141 17.02 114.937 16.462 114.901 15.85H117.439C117.487 16.234 117.673 16.552 117.997 16.804C118.333 17.056 118.747 17.182 119.239 17.182C119.719 17.182 120.091 17.086 120.355 16.894C120.631 16.702 120.769 16.456 120.769 16.156C120.769 15.832 120.601 15.592 120.265 15.436C119.941 15.268 119.419 15.088 118.699 14.896C117.955 14.716 117.343 14.53 116.863 14.338C116.395 14.146 115.987 13.852 115.639 13.456C115.303 13.06 115.135 12.526 115.135 11.854C115.135 11.302 115.291 10.798 115.603 10.342C115.927 9.886 116.383 9.526 116.971 9.262C117.571 8.998 118.273 8.866 119.077 8.866C120.265 8.866 121.213 9.166 121.921 9.766C122.629 10.354 123.019 11.152 123.091 12.16H120.679C120.643 11.764 120.475 11.452 120.175 11.224C119.887 10.984 119.497 10.864 119.005 10.864C118.549 10.864 118.195 10.948 117.943 11.116C117.703 11.284 117.583 11.518 117.583 11.818C117.583 12.154 117.751 12.412 118.087 12.592C118.423 12.76 118.945 12.934 119.653 13.114C120.373 13.294 120.967 13.48 121.435 13.672C121.903 13.864 122.305 14.164 122.641 14.572C122.989 14.968 123.169 15.496 123.181 16.156C123.181 16.732 123.019 17.248 122.695 17.704C122.383 18.16 121.927 18.52 121.327 18.784C120.739 19.036 120.049 19.162 119.257 19.162Z" fill="black"/>
<path d="M126.366 19.126C125.91 19.126 125.532 18.988 125.232 18.712C124.944 18.424 124.8 18.07 124.8 17.65C124.8 17.23 124.944 16.882 125.232 16.606C125.532 16.318 125.91 16.174 126.366 16.174C126.81 16.174 127.176 16.318 127.464 16.606C127.752 16.882 127.896 17.23 127.896 17.65C127.896 18.07 127.752 18.424 127.464 18.712C127.176 18.988 126.81 19.126 126.366 19.126Z" fill="#3B71FE"/>
</svg>
